<?xml version="1.0" encoding="UTF-8" standalone="no"?>
<!-- Generator: Adobe Illustrator 19.1.0, SVG Export Plug-In . SVG Version: 6.00 Build 0)  -->

<svg
   xmlns:dc="http://purl.org/dc/elements/1.1/"
   xmlns:cc="http://creativecommons.org/ns#"
   xmlns:rdf="http://www.w3.org/1999/02/22-rdf-syntax-ns#"
   xmlns:svg="http://www.w3.org/2000/svg"
   xmlns="http://www.w3.org/2000/svg"
   xmlns:sodipodi="http://sodipodi.sourceforge.net/DTD/sodipodi-0.dtd"
   xmlns:inkscape="http://www.inkscape.org/namespaces/inkscape"
   version="1.1"
   x="0px"
   y="0px"
   viewBox="0 0 64 64"
   style="enable-background:new 0 0 64 64;"
   xml:space="preserve"
   id="svg34"
   sodipodi:docname="Circle-icons-creditcard-green-negative.svg"
   inkscape:version="0.92.5 (0.92.5+68)"><metadata
   id="metadata40"><rdf:RDF><cc:Work
       rdf:about=""><dc:format>image/svg+xml</dc:format><dc:type
         rdf:resource="http://purl.org/dc/dcmitype/StillImage" /><dc:title></dc:title></cc:Work></rdf:RDF></metadata><defs
   id="defs38">
	
	
	
	
	
	
	

		
	
		
	
		
	
		
	
		
	
		
	
		
	
</defs><sodipodi:namedview
   pagecolor="#ffffff"
   bordercolor="#666666"
   borderopacity="1"
   objecttolerance="10"
   gridtolerance="10"
   guidetolerance="10"
   inkscape:pageopacity="0"
   inkscape:pageshadow="2"
   inkscape:window-width="1313"
   inkscape:window-height="713"
   id="namedview36"
   showgrid="false"
   inkscape:zoom="5.2149125"
   inkscape:cx="27.164316"
   inkscape:cy="38.388458"
   inkscape:window-x="53"
   inkscape:window-y="27"
   inkscape:window-maximized="1"
   inkscape:current-layer="svg34" />
<style
   type="text/css"
   id="style2">
	.st0{fill:#77B3D4;}
	.st1{opacity:0.2;}
	.st2{fill:#231F20;}
	.st3{fill:#FFFFFF;}
	.st4{fill:#4F5D73;}
	.st5{fill:#E0995E;}
</style>
<path
   style="fill:#dbf1f3;fill-opacity:1"
   d="M 32 0 A 32 32 0 0 0 0 32 A 32 32 0 0 0 32 64 A 32 32 0 0 0 64 32 A 32 32 0 0 0 32 0 z M 16 19 L 48 19 C 50.2 19 52 20.8 52 23 L 52 43 C 52 45.2 50.2 47 48 47 L 16 47 C 13.8 47 12 45.2 12 43 L 12 23 C 12 20.8 13.8 19 16 19 z "
   id="circle4" /><rect
   x="12"
   y="25"
   class="st4"
   width="40"
   height="6"
   id="rect16"
   style="fill:#dbf1f3;fill-opacity:1" /><circle
   class="st5"
   cx="38"
   cy="41"
   r="2"
   id="circle20"
   style="fill:#dbf1f3;fill-opacity:1" /><circle
   class="st5"
   cx="46"
   cy="41"
   r="2"
   id="circle24"
   style="fill:#dbf1f3;fill-opacity:1" /><circle
   class="st5"
   cx="30"
   cy="41"
   r="2"
   id="circle28"
   style="fill:#dbf1f3;fill-opacity:1" />

</svg>