<svg width="74" height="29" viewBox="0 0 74 29" fill="none" xmlns="http://www.w3.org/2000/svg">
<path d="M44.3571 16.7745V4.54902H47.4067H50.4562V5.40196C50.4562 5.87108 50.5333 6.2549 50.6276 6.2549C50.7218 6.2549 51.2155 5.87973 51.7248 5.42118C53.012 4.26215 54.7068 4.02834 56.3658 4.78094C58.5672 5.77958 58.6225 6.03241 58.619 15.0686C58.6162 22.1542 58.5668 22.9906 58.0918 23.9895C57.5246 25.1823 55.9505 26.1392 54.5365 26.1506C53.5182 26.1589 52.1094 25.5302 51.4529 24.7745C51.1624 24.4402 50.8194 24.1667 50.6905 24.1667C50.5617 24.1667 50.4562 25.2542 50.4562 26.5833V29H47.4067H44.3571V16.7745ZM52.2582 15.2108V8.10294L51.5965 8.00699C51.2326 7.95421 50.829 8.08216 50.6998 8.2913C50.5705 8.50045 50.4628 11.6206 50.4605 15.225C50.456 22.1169 50.5347 22.572 51.7005 22.4006C52.2423 22.321 52.2582 22.1157 52.2582 15.2108ZM14.6693 25.8851C13.4435 25.5042 12.5293 24.7341 12.219 23.8212C11.7722 22.5068 11.8386 17.4783 12.3152 16.5331C12.7128 15.7446 14.2632 14.8282 17.2106 13.6395C19.4189 12.7489 19.6835 12.4162 19.6835 10.5299C19.6835 8.74842 19.231 7.84419 18.4197 8.00442C17.8097 8.12491 17.5476 9.06267 17.4984 11.3015L17.4656 12.7941H14.6933H11.921V10.7948C11.921 8.39569 12.3407 7.25343 13.6579 6.06732C15.0415 4.82146 16.4037 4.40918 19.129 4.41137C22.8035 4.41432 24.9121 5.73393 25.5171 8.40926C25.6559 9.02265 25.7723 13.2028 25.776 17.6985L25.7826 25.8726H22.8716H19.9607V25.0196C19.9607 24.0224 19.6843 23.9291 19.1806 24.7563C18.488 25.8935 16.3876 26.4191 14.6693 25.8851V25.8851ZM19.622 18.9069L19.6991 15.4951L18.6894 16.5273C17.7119 17.5266 17.6793 17.627 17.6665 19.6785C17.651 22.1464 17.8093 22.5246 18.8087 22.406L19.5449 22.3186L19.622 18.9069ZM30.764 25.8893C28.6481 25.23 28.0004 23.9021 28.0004 20.2229C28.0004 18.8421 28.1327 17.3231 28.2944 16.8474C28.6101 15.9187 30.0168 15.0352 33.6202 13.5023C35.7151 12.6111 35.8467 12.3884 35.71 9.96507C35.6197 8.36379 35.1318 7.71191 34.2758 8.04877C33.908 8.19351 33.8223 8.65892 33.8223 10.5107V12.7941H30.9114H28.0004V10.9885C28.0004 8.74008 28.3893 7.51118 29.4748 6.3295C30.6946 5.00166 32.4255 4.40686 35.0699 4.40686C38.7535 4.40686 40.8853 5.64474 41.5726 8.18285C41.7394 8.79862 41.8596 12.7132 41.8605 17.5564L41.862 25.8726H38.9511H36.0402V24.9664V24.0603L35.2778 24.8062C34.0035 26.0529 32.47 26.4209 30.764 25.8893ZM35.6922 18.9069L35.7601 15.4951L34.7912 16.5571C33.8544 17.5839 33.8223 17.6931 33.8223 19.8504C33.8223 21.0776 33.9112 22.1729 34.0199 22.2843C34.1285 22.3957 34.534 22.449 34.9209 22.4028L35.6243 22.3186L35.6922 18.9069ZM64.7801 25.7675C63.2769 25.3326 62.268 24.6478 61.4252 23.4902C60.9899 22.8922 60.8312 22.1729 60.755 20.4514L60.6551 18.1961H63.3182H65.9812V19.5991C65.9812 21.6956 66.3656 22.5188 67.2931 22.4086C68.2677 22.2928 68.6827 21.2009 68.3192 19.7086C68.0853 18.7485 67.7939 18.4859 65.2882 16.9774C61.8735 14.9218 61.1443 14.2288 60.7057 12.6222C60.2576 10.9808 60.4963 7.97437 61.1707 6.76549C62.0288 5.22727 63.9772 4.4139 66.8129 4.41006C69.6659 4.40619 71.4117 5.01187 72.6219 6.42541C73.3903 7.32294 73.4665 7.5906 73.4665 9.39225V11.3725H70.8328H68.1991V10.1164C68.1991 8.44889 67.9852 7.96078 67.2546 7.96078C66.3818 7.96078 65.9812 8.49543 65.9812 9.66027C65.9812 11.0766 66.5807 11.8134 68.5656 12.8366C73.3905 15.324 74.1908 16.4486 73.9663 20.4262C73.8099 23.1976 73.2328 24.317 71.4847 25.2395C69.8891 26.0816 66.7269 26.3306 64.7801 25.7675V25.7675ZM0 12.9363V0H3.32678H6.65357V10.3775V20.7549H8.59419H10.5348V23.3137V25.8726H5.26741H0V12.9363Z" fill="#DBF1F3"/>
</svg>
