<svg width="134" height="63" viewBox="0 0 134 63" fill="none" xmlns="http://www.w3.org/2000/svg">
<g clip-path="url(#clip0)">
<g filter="url(#filter0_d)">
<path d="M102.996 31.5C104.45 31.5 105.624 30.3271 105.624 28.875C105.624 27.4228 104.45 26.25 102.996 26.25C101.543 26.25 100.369 27.4228 100.369 28.875C100.397 30.3271 101.57 31.5 102.996 31.5Z" fill="#8DCCD1"/>
</g>
<g filter="url(#filter1_d)">
<path d="M117.895 11.4224C116.295 6.32299 112.741 2.5162 107.749 0.712571C102.758 -1.09106 95.6156 0.693723 92.1616 4.21673C89.6345 6.79303 88.8567 10.408 86.0301 12.7527C83.4468 14.8966 79.5834 15.5828 75.9544 15.5119C72.3248 15.4409 68.7583 14.717 65.1393 14.4787C61.5207 14.2404 57.6605 14.5463 54.6931 16.3045C50.7982 18.6125 48.4783 24.2451 48.9254 28.2326C49.5427 33.7332 53.9053 39.2993 59.9012 40.4866L99.2031 40.95C104.362 40.8391 110.018 36.7109 112.747 32.7222C114.197 30.5894 115.485 30.0972 116.844 26.205C119.053 19.8729 119.282 15.8389 117.895 11.4224Z" fill="#B2E0EA"/>
</g>
<g filter="url(#filter2_d)">
<path d="M115.66 23.1525C112.613 23.1525 109.722 24.045 107.305 25.515C107.358 25.095 107.41 24.675 107.41 24.255C107.41 20.7375 104.52 17.85 100.999 17.85C97.4785 17.85 94.5883 20.7375 94.5883 24.255C94.5883 25.305 94.851 26.3025 95.2714 27.1425C92.0134 27.7725 89.2808 29.925 87.9146 32.865C86.1279 31.0275 83.6055 29.925 80.873 29.925C75.4079 29.925 70.9412 34.3875 70.9412 39.8475C70.9412 43.2075 72.5702 46.1475 75.0926 47.9325C74.8824 48.5625 74.7773 49.1925 74.7773 49.875C74.7773 53.3925 77.6675 56.28 81.1883 56.28C84.7091 56.28 87.5993 53.3925 87.5993 49.875C87.5993 49.035 87.4416 48.2475 87.1263 47.5125C88.2298 46.62 89.1232 45.465 89.7538 44.1525C91.593 46.095 94.2204 47.3025 97.1106 47.3025C98.6346 47.3025 100.053 46.9875 101.367 46.3575C104.047 51.5025 109.407 55.02 115.608 55.02C124.436 55.02 131.635 47.88 131.635 39.0075C131.635 30.2925 124.489 23.1525 115.66 23.1525Z" fill="#8DCCD1"/>
</g>
<g filter="url(#filter3_d)">
<path d="M41.7239 11.4451C44.4565 11.4451 46.6635 9.24007 46.6635 6.51007C46.6635 3.78007 44.4565 1.57507 41.7239 1.57507C38.9914 1.57507 36.7843 3.78007 36.7843 6.51007C36.8369 9.24007 39.0439 11.4451 41.7239 11.4451Z" fill="#B2E0EA"/>
</g>
<g filter="url(#filter4_d)">
<path d="M96.1647 58.8001C99.0717 58.8001 101.42 56.5714 101.42 53.8126C101.42 51.0535 99.0717 48.8251 96.1647 48.8251C93.2577 48.8251 90.9098 51.0535 90.9098 53.8126C90.9655 56.5714 93.3134 58.8001 96.1647 58.8001Z" fill="#8DCCD1"/>
</g>
<g filter="url(#filter5_d)">
<path d="M32.0549 5.25C33.5084 5.25 34.6823 4.07713 34.6823 2.625C34.6823 1.17287 33.5084 0 32.0549 0C30.6014 0 29.4274 1.17287 29.4274 2.625C29.4554 4.07713 30.6293 5.25 32.0549 5.25Z" fill="#B2E0EA"/>
</g>
<g filter="url(#filter6_d)">
<path d="M71.0462 34.1775C71.0462 30.555 68.1035 27.615 64.4776 27.615C62.9011 27.615 61.4298 28.1925 60.3262 29.085C59.0651 26.145 56.1223 24.0975 52.7066 24.0975C51.5506 24.0975 50.447 24.36 49.4486 24.78C49.4486 24.7275 49.4486 24.675 49.4486 24.6225C49.4486 19.1625 45.0345 14.7525 39.5694 14.7525C37.3623 14.7525 35.3129 15.4875 33.6839 16.695C33.316 16.4325 32.9482 16.17 32.5278 15.96C32.8431 15.12 33.0008 14.2275 33.0008 13.2825C33.0008 8.82 29.3749 5.25 24.9608 5.25C20.4941 5.25 16.9208 8.8725 16.9208 13.2825C16.9208 14.595 17.236 15.8025 17.7615 16.8525C15.2917 18.69 13.5051 21.42 12.8219 24.5175C12.0337 24.3075 11.2455 24.15 10.4047 24.15C5.83291 24.0975 2.10193 27.825 2.10193 32.3925C2.10193 36.855 5.67526 40.53 10.0894 40.6875H64.8455C68.3137 40.53 71.0462 37.6425 71.0462 34.1775Z" fill="#B2E0EA"/>
</g>
<g filter="url(#filter7_d)">
<path d="M24.4841 35.2453H31.7576V40.9501H16.9387V16.9087H24.4841V35.2453ZM33.1124 31.3743C33.1124 29.3595 33.4522 27.6164 34.132 26.1449C34.8344 24.6508 35.7861 23.519 36.9871 22.7493C38.188 21.9569 39.5362 21.5608 41.0316 21.5608C42.2779 21.5608 43.3542 21.8211 44.2606 22.3418C45.1669 22.8398 45.858 23.5303 46.3338 24.4131V21.7985H53.8454V40.9501H46.3338V38.3354C45.858 39.2183 45.1669 39.9201 44.2606 40.4407C43.3542 40.9387 42.2779 41.1878 41.0316 41.1878C39.5362 41.1878 38.188 40.8029 36.9871 40.0333C35.7861 39.2409 34.8344 38.109 34.132 36.6376C33.4522 35.1435 33.1124 33.389 33.1124 31.3743ZM46.3338 31.3743C46.3338 30.3556 46.0733 29.5632 45.5521 28.9973C45.031 28.4313 44.3625 28.1484 43.5468 28.1484C42.7311 28.1484 42.0627 28.4313 41.5415 28.9973C41.0204 29.5632 40.7598 30.3556 40.7598 31.3743C40.7598 32.393 41.0204 33.1853 41.5415 33.7512C42.0627 34.3172 42.7311 34.6001 43.5468 34.6001C44.3625 34.6001 45.031 34.3172 45.5521 33.7512C46.0733 33.1853 46.3338 32.393 46.3338 31.3743ZM56.2138 31.3743C56.2138 29.3595 56.5538 27.6164 57.2338 26.1449C57.9358 24.6508 58.8875 23.519 60.0888 22.7493C61.2895 21.9569 62.6379 21.5608 64.1329 21.5608C65.3794 21.5608 66.4556 21.8211 67.3621 22.3418C68.2685 22.8398 68.9596 23.5303 69.4351 24.4131V21.7985H76.947V40.9501H69.4351V38.3354C68.9596 39.2183 68.2685 39.9201 67.3621 40.4407C66.4556 40.9387 65.3794 41.1878 64.1329 41.1878C62.6379 41.1878 61.2895 40.8029 60.0888 40.0333C58.8875 39.2409 57.9358 38.109 57.2338 36.6376C56.5538 35.1435 56.2138 33.389 56.2138 31.3743ZM69.4351 31.3743C69.4351 30.3556 69.175 29.5632 68.6537 28.9973C68.1324 28.4313 67.464 28.1484 66.6485 28.1484C65.8324 28.1484 65.1639 28.4313 64.6432 28.9973C64.1219 29.5632 63.8613 30.3556 63.8613 31.3743C63.8613 32.393 64.1219 33.1853 64.6432 33.7512C65.1639 34.3172 65.8324 34.6001 66.6485 34.6001C67.464 34.6001 68.1324 34.3172 68.6537 33.7512C69.175 33.1853 69.4351 32.393 69.4351 31.3743ZM87.8804 24.4131C88.3565 23.5303 89.0359 22.8398 89.9198 22.3418C90.8262 21.8211 91.9025 21.5608 93.1489 21.5608C94.6439 21.5608 95.9923 21.9569 97.1931 22.7493C98.3944 23.519 99.3345 24.6508 100.014 26.1449C100.717 27.6164 101.068 29.3595 101.068 31.3743C101.068 33.389 100.717 35.1435 100.014 36.6376C99.3345 38.109 98.3944 39.2409 97.1931 40.0333C95.9923 40.8029 94.6439 41.1878 93.1489 41.1878C91.9025 41.1878 90.8262 40.9387 89.9198 40.4407C89.0359 39.9201 88.3565 39.2183 87.8804 38.3354V50.1184H80.3348V21.7985H87.8804V24.4131ZM93.4206 31.3743C93.4206 30.3556 93.16 29.5632 92.6387 28.9973C92.1179 28.4313 91.4495 28.1484 90.6334 28.1484C89.8178 28.1484 89.1494 28.4313 88.6281 28.9973C88.1068 29.5632 87.8467 30.3556 87.8467 31.3743C87.8467 32.393 88.1068 33.1853 88.6281 33.7512C89.1494 34.3172 89.8178 34.6001 90.6334 34.6001C91.4495 34.6001 92.1179 34.3172 92.6387 33.7512C93.16 33.1853 93.4206 32.393 93.4206 31.3743ZM111.968 41.1878C110.155 41.1878 108.546 40.8935 107.141 40.3049C105.759 39.7163 104.66 38.9014 103.844 37.86C103.029 36.8187 102.564 35.6415 102.451 34.3285H109.69C109.781 34.8945 110.019 35.3133 110.404 35.5849C110.812 35.8566 111.322 35.9924 111.934 35.9924C112.319 35.9924 112.625 35.9132 112.851 35.7547C113.078 35.5736 113.191 35.3585 113.191 35.1095C113.191 34.6794 112.953 34.3738 112.477 34.1927C112.001 34.0116 111.197 33.8078 110.064 33.5814C108.682 33.3098 107.538 33.0155 106.631 32.6986C105.748 32.3817 104.966 31.8383 104.286 31.0687C103.629 30.299 103.301 29.235 103.301 27.8767C103.301 26.6996 103.607 25.6356 104.218 24.6848C104.853 23.7114 105.782 22.953 107.006 22.4097C108.229 21.8437 109.713 21.5608 111.458 21.5608C114.041 21.5608 116.058 22.1947 117.508 23.4624C118.98 24.7301 119.864 26.3826 120.159 28.4201H113.463C113.35 27.8994 113.112 27.5032 112.749 27.2316C112.387 26.9372 111.899 26.7901 111.288 26.7901C110.903 26.7901 110.608 26.8694 110.404 27.0278C110.2 27.1636 110.098 27.3787 110.098 27.673C110.098 28.0578 110.336 28.3521 110.812 28.5559C111.288 28.7369 112.047 28.9294 113.089 29.1331C114.472 29.4048 115.638 29.7104 116.59 30.05C117.542 30.3895 118.369 30.9781 119.071 31.8157C119.774 32.6307 120.125 33.7626 120.125 35.2114C120.125 36.3432 119.797 37.362 119.139 38.2675C118.482 39.173 117.531 39.8861 116.284 40.4067C115.061 40.9274 113.622 41.1878 111.968 41.1878Z" fill="#1D1B44"/>
</g>
<g filter="url(#filter8_d)">
<path d="M17.2361 44.2218C17.3412 44.2218 17.4294 44.2596 17.5009 44.3352C17.5766 44.4108 17.6144 44.5032 17.6144 44.6124C17.6144 44.7216 17.5766 44.814 17.5009 44.8896C17.4294 44.9652 17.3412 45.003 17.2361 45.003C17.1268 45.003 17.0343 44.9652 16.9586 44.8896C16.8829 44.814 16.8451 44.7216 16.8451 44.6124C16.8451 44.5032 16.8829 44.4108 16.9586 44.3352C17.0343 44.2596 17.1268 44.2218 17.2361 44.2218ZM16.9712 45.5007H17.4505L17.5198 48.6507H16.9018L16.9712 45.5007ZM19.5115 47.3088H21.0502V47.775H18.9377V43.3839H19.5115V47.3088ZM21.7289 46.0362C21.7289 45.6834 21.8004 45.3747 21.9433 45.1101C22.0863 44.8413 22.2818 44.6334 22.5298 44.4864C22.782 44.3394 23.0616 44.2659 23.3685 44.2659C23.6712 44.2659 23.9339 44.331 24.1567 44.4612C24.3795 44.5914 24.5456 44.7552 24.6549 44.9526V44.3226H25.235V47.775H24.6549V47.1324C24.5414 47.334 24.3711 47.502 24.1441 47.6364C23.9213 47.7666 23.6606 47.8317 23.3622 47.8317C23.0553 47.8317 22.7778 47.7561 22.5298 47.6049C22.2818 47.4537 22.0863 47.2416 21.9433 46.9686C21.8004 46.6956 21.7289 46.3848 21.7289 46.0362ZM24.6549 46.0425C24.6549 45.7821 24.6023 45.5553 24.4972 45.3621C24.3921 45.1689 24.2492 45.0219 24.0684 44.9211C23.8919 44.8161 23.6964 44.7636 23.482 44.7636C23.2676 44.7636 23.0721 44.814 22.8955 44.9148C22.719 45.0156 22.5781 45.1626 22.473 45.3558C22.3679 45.549 22.3154 45.7758 22.3154 46.0362C22.3154 46.3008 22.3679 46.5318 22.473 46.7292C22.5781 46.9224 22.719 47.0715 22.8955 47.1765C23.0721 47.2773 23.2676 47.3277 23.482 47.3277C23.6964 47.3277 23.8919 47.2773 24.0684 47.1765C24.2492 47.0715 24.3921 46.9224 24.4972 46.7292C24.6023 46.5318 24.6549 46.3029 24.6549 46.0425ZM27.7749 47.2458L28.8469 44.3226H29.4586L28.1028 47.775H27.4344L26.0786 44.3226H26.6966L27.7749 47.2458ZM30.0926 46.0362C30.0926 45.6834 30.1641 45.3747 30.307 45.1101C30.4499 44.8413 30.6454 44.6334 30.8934 44.4864C31.1457 44.3394 31.4252 44.2659 31.7321 44.2659C32.0348 44.2659 32.2976 44.331 32.5204 44.4612C32.7432 44.5914 32.9092 44.7552 33.0185 44.9526V44.3226H33.5987V47.775H33.0185V47.1324C32.905 47.334 32.7348 47.502 32.5077 47.6364C32.2849 47.7666 32.0243 47.8317 31.7258 47.8317C31.4189 47.8317 31.1415 47.7561 30.8934 47.6049C30.6454 47.4537 30.4499 47.2416 30.307 46.9686C30.1641 46.6956 30.0926 46.3848 30.0926 46.0362ZM33.0185 46.0425C33.0185 45.7821 32.966 45.5553 32.8609 45.3621C32.7558 45.1689 32.6128 45.0219 32.4321 44.9211C32.2555 44.8161 32.06 44.7636 31.8456 44.7636C31.6312 44.7636 31.4357 44.814 31.2592 44.9148C31.0826 45.0156 30.9418 45.1626 30.8367 45.3558C30.7316 45.549 30.679 45.7758 30.679 46.0362C30.679 46.3008 30.7316 46.5318 30.8367 46.7292C30.9418 46.9224 31.0826 47.0715 31.2592 47.1765C31.4357 47.2773 31.6312 47.3277 31.8456 47.3277C32.06 47.3277 32.2555 47.2773 32.4321 47.1765C32.6128 47.0715 32.7558 46.9224 32.8609 46.7292C32.966 46.5318 33.0185 46.3029 33.0185 46.0425ZM39.0077 44.2596C39.2768 44.2596 39.5164 44.3163 39.7266 44.4297C39.9368 44.5389 40.1029 44.7048 40.2248 44.9274C40.3467 45.15 40.4077 45.4209 40.4077 45.7401V47.775H39.8401V45.822C39.8401 45.4776 39.7539 45.2151 39.5816 45.0345C39.4134 44.8497 39.1843 44.7573 38.8942 44.7573C38.5958 44.7573 38.3582 44.8539 38.1817 45.0471C38.0051 45.2361 37.9168 45.5112 37.9168 45.8724V47.775H37.3493V45.822C37.3493 45.4776 37.2631 45.2151 37.0908 45.0345C36.9226 44.8497 36.6935 44.7573 36.4034 44.7573C36.1049 44.7573 35.8674 44.8539 35.6909 45.0471C35.5143 45.2361 35.426 45.5112 35.426 45.8724V47.775H34.8522V44.3226H35.426V44.8203C35.5395 44.6397 35.6909 44.5011 35.88 44.4045C36.0734 44.3079 36.2857 44.2596 36.5169 44.2596C36.807 44.2596 37.0634 44.3247 37.2862 44.4549C37.509 44.5851 37.6751 44.7762 37.7844 45.0282C37.8811 44.7846 38.0408 44.5956 38.2637 44.4612C38.4865 44.3268 38.7345 44.2596 39.0077 44.2596ZM43.1398 47.8317C42.8161 47.8317 42.5219 47.7582 42.257 47.6112C41.9964 47.4642 41.7904 47.2563 41.639 46.9875C41.4919 46.7145 41.4183 46.3995 41.4183 46.0425C41.4183 45.6897 41.494 45.3789 41.6453 45.1101C41.8009 44.8371 42.0111 44.6292 42.2759 44.4864C42.5408 44.3394 42.8372 44.2659 43.1651 44.2659C43.493 44.2659 43.7893 44.3394 44.0542 44.4864C44.319 44.6292 44.5271 44.835 44.6785 45.1038C44.834 45.3726 44.9118 45.6855 44.9118 46.0425C44.9118 46.3995 44.8319 46.7145 44.6722 46.9875C44.5166 47.2563 44.3043 47.4642 44.0353 47.6112C43.7662 47.7582 43.4677 47.8317 43.1398 47.8317ZM43.1398 47.3277C43.3458 47.3277 43.5392 47.2794 43.72 47.1828C43.9007 47.0862 44.0458 46.9413 44.1551 46.7481C44.2686 46.5549 44.3253 46.3197 44.3253 46.0425C44.3253 45.7653 44.2707 45.5301 44.1614 45.3369C44.0521 45.1437 43.9092 45.0009 43.7326 44.9085C43.556 44.8119 43.3647 44.7636 43.1588 44.7636C42.9486 44.7636 42.7552 44.8119 42.5786 44.9085C42.4062 45.0009 42.2675 45.1437 42.1624 45.3369C42.0573 45.5301 42.0048 45.7653 42.0048 46.0425C42.0048 46.3239 42.0552 46.5612 42.1561 46.7544C42.2612 46.9476 42.3999 47.0925 42.5723 47.1891C42.7447 47.2815 42.9338 47.3277 43.1398 47.3277ZM47.1734 47.8317C46.9085 47.8317 46.671 47.7876 46.4608 47.6994C46.2506 47.607 46.0846 47.481 45.9627 47.3214C45.8407 47.1576 45.7735 46.9707 45.7609 46.7607H46.3536C46.3704 46.9329 46.4503 47.0736 46.5932 47.1828C46.7404 47.292 46.9317 47.3466 47.1671 47.3466C47.3857 47.3466 47.558 47.2983 47.6842 47.2017C47.8103 47.1051 47.8733 46.9833 47.8733 46.8363C47.8733 46.6851 47.8061 46.5738 47.6716 46.5024C47.537 46.4268 47.3289 46.3533 47.0473 46.2819C46.7908 46.2147 46.5806 46.1475 46.4167 46.0803C46.2569 46.0089 46.1182 45.906 46.0005 45.7716C45.887 45.633 45.8302 45.4524 45.8302 45.2298C45.8302 45.0534 45.8828 44.8917 45.9879 44.7447C46.093 44.5977 46.2422 44.4822 46.4356 44.3982C46.629 44.31 46.8497 44.2659 47.0977 44.2659C47.4803 44.2659 47.7893 44.3625 48.0247 44.5557C48.2601 44.7489 48.3862 45.0135 48.403 45.3495H47.8292C47.8166 45.1689 47.743 45.024 47.6085 44.9148C47.4782 44.8056 47.3016 44.751 47.0788 44.751C46.8728 44.751 46.7089 44.7951 46.5869 44.8833C46.465 44.9715 46.4041 45.087 46.4041 45.2298C46.4041 45.3432 46.4398 45.4377 46.5113 45.5133C46.5869 45.5847 46.6794 45.6435 46.7887 45.6897C46.9022 45.7317 47.0578 45.78 47.2554 45.8346C47.5034 45.9018 47.7052 45.969 47.8607 46.0362C48.0163 46.0992 48.1487 46.1958 48.258 46.326C48.3715 46.4562 48.4304 46.6263 48.4346 46.8363C48.4346 47.0253 48.382 47.1954 48.2769 47.3466C48.1718 47.4978 48.0226 47.6175 47.8292 47.7057C47.64 47.7897 47.4214 47.8317 47.1734 47.8317ZM52.1932 44.7951V46.83C52.1932 46.998 52.229 47.1177 52.3004 47.1891C52.3719 47.2563 52.4959 47.2899 52.6725 47.2899H53.095V47.775H52.5779C52.2584 47.775 52.0188 47.7015 51.859 47.5545C51.6993 47.4075 51.6194 47.166 51.6194 46.83V44.7951H51.1717V44.3226H51.6194V43.4532H52.1932V44.3226H53.095V44.7951H52.1932ZM57.1386 44.3226V47.775H56.5648V47.2647C56.4555 47.4411 56.302 47.5797 56.1045 47.6805C55.9111 47.7771 55.6967 47.8254 55.4613 47.8254C55.1922 47.8254 54.9505 47.7708 54.7361 47.6616C54.5217 47.5482 54.3514 47.3802 54.2253 47.1576C54.1034 46.935 54.0424 46.6641 54.0424 46.3449V44.3226H54.61V46.2693C54.61 46.6095 54.6962 46.872 54.8685 47.0568C55.0409 47.2374 55.2763 47.3277 55.5748 47.3277C55.8817 47.3277 56.1234 47.2332 56.2999 47.0442C56.4765 46.8552 56.5648 46.5801 56.5648 46.2189V44.3226H57.1386ZM60.1418 46.0362C60.1418 45.6834 60.2133 45.3747 60.3562 45.1101C60.4991 44.8413 60.6946 44.6334 60.9427 44.4864C61.1949 44.3394 61.4744 44.2659 61.7813 44.2659C62.084 44.2659 62.3468 44.331 62.5696 44.4612C62.7924 44.5914 62.9584 44.7552 63.0677 44.9526V44.3226H63.6479V47.775H63.0677V47.1324C62.9542 47.334 62.784 47.502 62.557 47.6364C62.3341 47.7666 62.0735 47.8317 61.775 47.8317C61.4681 47.8317 61.1907 47.7561 60.9427 47.6049C60.6946 47.4537 60.4991 47.2416 60.3562 46.9686C60.2133 46.6956 60.1418 46.3848 60.1418 46.0362ZM63.0677 46.0425C63.0677 45.7821 63.0152 45.5553 62.9101 45.3621C62.805 45.1689 62.6621 45.0219 62.4813 44.9211C62.3047 44.8161 62.1092 44.7636 61.8948 44.7636C61.6804 44.7636 61.485 44.814 61.3084 44.9148C61.1318 45.0156 60.991 45.1626 60.8859 45.3558C60.7808 45.549 60.7283 45.7758 60.7283 46.0362C60.7283 46.3008 60.7808 46.5318 60.8859 46.7292C60.991 46.9224 61.1318 47.0715 61.3084 47.1765C61.485 47.2773 61.6804 47.3277 61.8948 47.3277C62.1092 47.3277 62.3047 47.2773 62.4813 47.1765C62.6621 47.0715 62.805 46.9224 62.9101 46.7292C63.0152 46.5318 63.0677 46.3029 63.0677 46.0425ZM67.9658 44.3226V47.775H67.392V47.2647C67.2827 47.4411 67.1292 47.5797 66.9317 47.6805C66.7383 47.7771 66.5239 47.8254 66.2885 47.8254C66.0194 47.8254 65.7777 47.7708 65.5633 47.6616C65.3489 47.5482 65.1786 47.3802 65.0525 47.1576C64.9306 46.935 64.8696 46.6641 64.8696 46.3449V44.3226H65.4372V46.2693C65.4372 46.6095 65.5233 46.872 65.6957 47.0568C65.8681 47.2374 66.1035 47.3277 66.402 47.3277C66.7089 47.3277 66.9506 47.2332 67.1271 47.0442C67.3037 46.8552 67.392 46.5801 67.392 46.2189V44.3226H67.9658ZM69.9185 44.7951V46.83C69.9185 46.998 69.9543 47.1177 70.0257 47.1891C70.0972 47.2563 70.2212 47.2899 70.3978 47.2899H70.8203V47.775H70.3032C69.9837 47.775 69.7441 47.7015 69.5843 47.5545C69.4246 47.4075 69.3447 47.166 69.3447 46.83V44.7951H68.897V44.3226H69.3447V43.4532H69.9185V44.3226H70.8203V44.7951H69.9185ZM73.3064 47.8317C72.9827 47.8317 72.6884 47.7582 72.4236 47.6112C72.1629 47.4642 71.9569 47.2563 71.8056 46.9875C71.6584 46.7145 71.5849 46.3995 71.5849 46.0425C71.5849 45.6897 71.6605 45.3789 71.8119 45.1101C71.9674 44.8371 72.1776 44.6292 72.4425 44.4864C72.7073 44.3394 73.0037 44.2659 73.3316 44.2659C73.6595 44.2659 73.9559 44.3394 74.2207 44.4864C74.4856 44.6292 74.6937 44.835 74.845 45.1038C75.0006 45.3726 75.0783 45.6855 75.0783 46.0425C75.0783 46.3995 74.9985 46.7145 74.8387 46.9875C74.6832 47.2563 74.4709 47.4642 74.2018 47.6112C73.9328 47.7582 73.6343 47.8317 73.3064 47.8317ZM73.3064 47.3277C73.5124 47.3277 73.7058 47.2794 73.8865 47.1828C74.0673 47.0862 74.2123 46.9413 74.3216 46.7481C74.4351 46.5549 74.4919 46.3197 74.4919 46.0425C74.4919 45.7653 74.4372 45.5301 74.3279 45.3369C74.2186 45.1437 74.0757 45.0009 73.8991 44.9085C73.7226 44.8119 73.5313 44.7636 73.3253 44.7636C73.1151 44.7636 72.9217 44.8119 72.7452 44.9085C72.5728 45.0009 72.4341 45.1437 72.329 45.3369C72.2239 45.5301 72.1713 45.7653 72.1713 46.0425C72.1713 46.3239 72.2218 46.5612 72.3227 46.7544C72.4278 46.9476 72.5665 47.0925 72.7389 47.1891C72.9112 47.2815 73.1004 47.3277 73.3064 47.3277ZM76.8608 43.3839L76.7914 46.5339H76.3122L76.2428 43.3839H76.8608ZM76.577 47.8128C76.4677 47.8128 76.3752 47.775 76.2996 47.6994C76.2239 47.6238 76.1861 47.5314 76.1861 47.4222C76.1861 47.313 76.2239 47.2206 76.2996 47.145C76.3752 47.0694 76.4677 47.0316 76.577 47.0316C76.6821 47.0316 76.7704 47.0694 76.8419 47.145C76.9176 47.2206 76.9554 47.313 76.9554 47.4222C76.9554 47.5314 76.9176 47.6238 76.8419 47.6994C76.7704 47.775 76.6821 47.8128 76.577 47.8128Z" fill="#1D1B44"/>
</g>
</g>
<defs>
<filter id="filter0_d" x="96.3687" y="26.25" width="13.2549" height="13.25" filterUnits="userSpaceOnUse" color-interpolation-filters="sRGB">
<feFlood flood-opacity="0" result="BackgroundImageFix"/>
<feColorMatrix in="SourceAlpha" type="matrix" values="0 0 0 0 0 0 0 0 0 0 0 0 0 0 0 0 0 0 127 0"/>
<feOffset dy="4"/>
<feGaussianBlur stdDeviation="2"/>
<feColorMatrix type="matrix" values="0 0 0 0 0 0 0 0 0 0 0 0 0 0 0 0 0 0 0.25 0"/>
<feBlend mode="normal" in2="BackgroundImageFix" result="effect1_dropShadow"/>
<feBlend mode="normal" in="SourceGraphic" in2="effect1_dropShadow" result="shape"/>
</filter>
<filter id="filter1_d" x="44.8706" y="0" width="77.8903" height="48.95" filterUnits="userSpaceOnUse" color-interpolation-filters="sRGB">
<feFlood flood-opacity="0" result="BackgroundImageFix"/>
<feColorMatrix in="SourceAlpha" type="matrix" values="0 0 0 0 0 0 0 0 0 0 0 0 0 0 0 0 0 0 127 0"/>
<feOffset dy="4"/>
<feGaussianBlur stdDeviation="2"/>
<feColorMatrix type="matrix" values="0 0 0 0 0 0 0 0 0 0 0 0 0 0 0 0 0 0 0.25 0"/>
<feBlend mode="normal" in2="BackgroundImageFix" result="effect1_dropShadow"/>
<feBlend mode="normal" in="SourceGraphic" in2="effect1_dropShadow" result="shape"/>
</filter>
<filter id="filter2_d" x="66.9412" y="17.85" width="68.6941" height="46.43" filterUnits="userSpaceOnUse" color-interpolation-filters="sRGB">
<feFlood flood-opacity="0" result="BackgroundImageFix"/>
<feColorMatrix in="SourceAlpha" type="matrix" values="0 0 0 0 0 0 0 0 0 0 0 0 0 0 0 0 0 0 127 0"/>
<feOffset dy="4"/>
<feGaussianBlur stdDeviation="2"/>
<feColorMatrix type="matrix" values="0 0 0 0 0 0 0 0 0 0 0 0 0 0 0 0 0 0 0.25 0"/>
<feBlend mode="normal" in2="BackgroundImageFix" result="effect1_dropShadow"/>
<feBlend mode="normal" in="SourceGraphic" in2="effect1_dropShadow" result="shape"/>
</filter>
<filter id="filter3_d" x="32.7843" y="1.57507" width="17.8792" height="17.87" filterUnits="userSpaceOnUse" color-interpolation-filters="sRGB">
<feFlood flood-opacity="0" result="BackgroundImageFix"/>
<feColorMatrix in="SourceAlpha" type="matrix" values="0 0 0 0 0 0 0 0 0 0 0 0 0 0 0 0 0 0 127 0"/>
<feOffset dy="4"/>
<feGaussianBlur stdDeviation="2"/>
<feColorMatrix type="matrix" values="0 0 0 0 0 0 0 0 0 0 0 0 0 0 0 0 0 0 0.25 0"/>
<feBlend mode="normal" in2="BackgroundImageFix" result="effect1_dropShadow"/>
<feBlend mode="normal" in="SourceGraphic" in2="effect1_dropShadow" result="shape"/>
</filter>
<filter id="filter4_d" x="86.9098" y="48.8251" width="18.5098" height="17.975" filterUnits="userSpaceOnUse" color-interpolation-filters="sRGB">
<feFlood flood-opacity="0" result="BackgroundImageFix"/>
<feColorMatrix in="SourceAlpha" type="matrix" values="0 0 0 0 0 0 0 0 0 0 0 0 0 0 0 0 0 0 127 0"/>
<feOffset dy="4"/>
<feGaussianBlur stdDeviation="2"/>
<feColorMatrix type="matrix" values="0 0 0 0 0 0 0 0 0 0 0 0 0 0 0 0 0 0 0.25 0"/>
<feBlend mode="normal" in2="BackgroundImageFix" result="effect1_dropShadow"/>
<feBlend mode="normal" in="SourceGraphic" in2="effect1_dropShadow" result="shape"/>
</filter>
<filter id="filter5_d" x="25.4274" y="0" width="13.2549" height="13.25" filterUnits="userSpaceOnUse" color-interpolation-filters="sRGB">
<feFlood flood-opacity="0" result="BackgroundImageFix"/>
<feColorMatrix in="SourceAlpha" type="matrix" values="0 0 0 0 0 0 0 0 0 0 0 0 0 0 0 0 0 0 127 0"/>
<feOffset dy="4"/>
<feGaussianBlur stdDeviation="2"/>
<feColorMatrix type="matrix" values="0 0 0 0 0 0 0 0 0 0 0 0 0 0 0 0 0 0 0.25 0"/>
<feBlend mode="normal" in2="BackgroundImageFix" result="effect1_dropShadow"/>
<feBlend mode="normal" in="SourceGraphic" in2="effect1_dropShadow" result="shape"/>
</filter>
<filter id="filter6_d" x="-1.89807" y="5.25" width="76.9443" height="43.4375" filterUnits="userSpaceOnUse" color-interpolation-filters="sRGB">
<feFlood flood-opacity="0" result="BackgroundImageFix"/>
<feColorMatrix in="SourceAlpha" type="matrix" values="0 0 0 0 0 0 0 0 0 0 0 0 0 0 0 0 0 0 127 0"/>
<feOffset dy="4"/>
<feGaussianBlur stdDeviation="2"/>
<feColorMatrix type="matrix" values="0 0 0 0 0 0 0 0 0 0 0 0 0 0 0 0 0 0 0.25 0"/>
<feBlend mode="normal" in2="BackgroundImageFix" result="effect1_dropShadow"/>
<feBlend mode="normal" in="SourceGraphic" in2="effect1_dropShadow" result="shape"/>
</filter>
<filter id="filter7_d" x="12.9387" y="16.9087" width="111.22" height="41.2097" filterUnits="userSpaceOnUse" color-interpolation-filters="sRGB">
<feFlood flood-opacity="0" result="BackgroundImageFix"/>
<feColorMatrix in="SourceAlpha" type="matrix" values="0 0 0 0 0 0 0 0 0 0 0 0 0 0 0 0 0 0 127 0"/>
<feOffset dy="4"/>
<feGaussianBlur stdDeviation="2"/>
<feColorMatrix type="matrix" values="0 0 0 0 0 0 0 0 0 0 0 0 0 0 0 0 0 0 0.25 0"/>
<feBlend mode="normal" in2="BackgroundImageFix" result="effect1_dropShadow"/>
<feBlend mode="normal" in="SourceGraphic" in2="effect1_dropShadow" result="shape"/>
</filter>
<filter id="filter8_d" x="12.8451" y="43.3839" width="68.1103" height="13.2668" filterUnits="userSpaceOnUse" color-interpolation-filters="sRGB">
<feFlood flood-opacity="0" result="BackgroundImageFix"/>
<feColorMatrix in="SourceAlpha" type="matrix" values="0 0 0 0 0 0 0 0 0 0 0 0 0 0 0 0 0 0 127 0"/>
<feOffset dy="4"/>
<feGaussianBlur stdDeviation="2"/>
<feColorMatrix type="matrix" values="0 0 0 0 0 0 0 0 0 0 0 0 0 0 0 0 0 0 0.25 0"/>
<feBlend mode="normal" in2="BackgroundImageFix" result="effect1_dropShadow"/>
<feBlend mode="normal" in="SourceGraphic" in2="effect1_dropShadow" result="shape"/>
</filter>
<clipPath id="clip0">
<rect width="134" height="63" fill="white"/>
</clipPath>
</defs>
</svg>
