<svg width="71" height="53" viewBox="0 0 71 53" fill="none" xmlns="http://www.w3.org/2000/svg">
<g clip-path="url(#clip0)">
<path d="M16.4776 52.5003C14.979 51.827 14.3668 50.8771 13.8106 48.362C13.6611 47.686 13.5356 47.6188 12.4224 47.6188H11.1985V42.667C11.1985 37.3586 11.4171 36.1422 12.7499 34.0364C13.5413 32.7859 15.2885 31.5027 16.7735 31.0815C17.3877 30.9073 17.9441 30.7233 18.0098 30.6726C18.0755 30.622 17.6022 30.0491 16.9578 29.3994C15.8829 28.3156 15.6985 28.23 14.7201 28.3598C13.8555 28.4746 13.4453 28.3585 12.5517 27.7456C9.84097 25.8867 9.12647 24.0673 10.5529 22.6559C11.0787 22.1356 11.5535 21.9434 12.3127 21.9434C13.1966 21.9434 13.6003 22.1705 15.0068 23.4589C16.5869 24.9065 16.6612 25.0326 16.6612 26.2686C16.6612 27.5198 16.7049 27.5904 17.9825 28.4016C18.7092 28.863 19.3668 29.2406 19.4439 29.2406C19.521 29.2406 19.7956 28.298 20.0542 27.146C20.8059 23.7976 21.7221 21.8902 23.5018 19.9683C27.2592 15.9108 34.6662 13.9585 41.0527 15.3423C43.9971 15.9803 47.6582 17.8564 49.4834 19.6623C51.3471 21.5065 52.2124 23.2002 52.9979 26.5414C53.3295 27.9516 53.6426 29.1515 53.6937 29.2078C53.7448 29.2641 54.4058 28.9169 55.1627 28.4364C56.5023 27.5857 56.5387 27.5282 56.5387 26.2621C56.5387 25.0119 56.6038 24.9033 58.2241 23.4525C59.6296 22.1939 60.0769 21.9434 60.9182 21.9434C62.3096 21.9434 63.3671 22.9936 63.3671 24.3756C63.3671 25.2303 63.1681 25.5671 62.0528 26.5993C60.3464 28.1787 59.7692 28.4649 58.4462 28.3876C57.5035 28.3326 57.2051 28.4679 56.264 29.3772C55.6644 29.9566 55.2659 30.5076 55.3783 30.6017C55.4908 30.6958 56.1481 30.9784 56.839 31.2297C58.6197 31.8773 60.2051 33.328 61.0973 35.1261C61.8501 36.6433 61.8665 36.7778 61.9532 42.1459L62.0417 47.6188H60.7976C59.6616 47.6188 59.5397 47.6833 59.3929 48.362C59.0848 49.7866 58.4277 51.3393 57.9529 51.7645C56.6558 52.926 54.2095 53.327 52.1484 52.716C50.3906 52.1948 48.891 50.1407 48.891 48.2541V47.6188H36.6351H24.3793L24.2025 48.9376C24.1053 49.6629 23.748 50.664 23.4087 51.1623C22.2442 52.8722 18.7897 53.5391 16.4776 52.5003V52.5003ZM45.3681 42.4107C47.8344 40.7805 47.8344 37.16 45.3681 35.5297C44.4571 34.9275 44.2962 34.9162 36.5999 34.9162C28.886 34.9162 28.7449 34.9261 27.8318 35.5339C27.3213 35.8737 26.6945 36.573 26.4388 37.088C25.5023 38.9742 26.0992 41.2533 27.8318 42.4065C28.7449 43.0143 28.886 43.0242 36.5999 43.0242C44.2962 43.0242 44.4571 43.013 45.3681 42.4107V42.4107ZM28.9551 41.8115C28.7697 41.5904 28.6893 41.2255 28.7765 41.0007C29.0153 40.3849 44.1846 40.3849 44.4234 41.0007C44.5106 41.2255 44.4302 41.5904 44.2448 41.8115C43.7418 42.4112 29.4581 42.4112 28.9551 41.8115V41.8115ZM27.6548 39.6039C27.073 39.3684 27.2638 38.4519 27.9279 38.2917C28.2659 38.2101 32.4142 38.1774 37.1462 38.219L45.7499 38.2945V38.9702V39.6459L36.8731 39.694C31.9908 39.7205 27.8426 39.6799 27.6548 39.6039ZM28.7643 36.9083C28.3597 35.8651 29.2617 35.7268 36.4473 35.7307C40.2117 35.7329 43.5747 35.8094 43.9206 35.9011C44.3672 36.0194 44.5255 36.2338 44.4669 36.6406C44.3852 37.2069 44.2951 37.2143 36.6613 37.2853C29.6761 37.3502 28.9217 37.3142 28.7643 36.9083V36.9083ZM18.2156 40.2036C20.2025 39.2882 21.4316 37.2137 21.5884 34.5108C21.6799 32.9346 21.6858 32.9405 20.2129 33.1338C16.458 33.6267 13.9298 36.2354 13.9298 39.617C13.9298 40.9843 15.9275 41.2577 18.2156 40.2036V40.2036ZM15.4866 39.1485C15.3023 38.6733 15.9637 36.8808 16.5669 36.2209C17.2149 35.5119 18.929 34.6459 19.6844 34.6459C20.1866 34.6459 20.2449 34.7531 20.0889 35.3892C19.7391 36.8163 18.852 38.3096 18.1009 38.736C17.0201 39.3495 15.6485 39.5659 15.4866 39.1485ZM58.7417 40.5823C59.8018 40.0209 59.2218 37.2108 57.6772 35.4253C56.5905 34.169 55.0025 33.3984 52.9436 33.1281L51.5357 32.9433L51.7067 34.7554C51.9926 37.7854 53.4997 39.8695 55.928 40.593C56.9953 40.911 58.1292 40.9067 58.7417 40.5823V40.5823ZM56.3118 39.2425C55.0123 38.9383 53.8596 37.7224 53.3913 36.1618C52.8952 34.5089 52.8813 34.6459 53.5451 34.6459C54.2575 34.6459 55.9903 35.5177 56.5966 36.1811C57.2417 36.887 57.9692 38.6836 57.7934 39.1369C57.6341 39.5477 57.6201 39.5487 56.3118 39.2425V39.2425ZM29.9082 29.5161C35.8132 29.2286 44.6383 29.3645 48.4683 29.8019C49.663 29.9383 50.7408 29.9507 50.8634 29.8294C51.1948 29.5015 49.8011 24.4901 49.0044 23.1449C47.5372 20.6676 44.2929 18.685 40.2333 17.7847C37.7442 17.2328 35.8561 17.2336 33.1467 17.7877C27.595 18.9232 24.1685 21.7171 23.0781 25.9974C22.8319 26.9636 22.5218 28.1694 22.3889 28.6771C22.076 29.8724 22.2697 30.1379 23.317 29.9494C23.7874 29.8647 26.7535 29.6697 29.9082 29.5161ZM8.05745 39.0873C6.6671 38.3743 5.48603 37.0363 4.91575 35.5281C4.23477 33.7271 4.2336 33.1154 4.9078 31.3597C5.86731 28.861 8.39464 26.9297 9.75931 27.6524C10.5822 28.0882 10.5413 28.3817 9.62797 28.5945C6.11604 29.4127 4.69513 33.5491 6.99638 36.2552C7.94959 37.3762 8.2446 37.2908 7.6183 36.0753C6.9825 34.8412 6.9533 33.0096 7.54962 31.7661C8.46413 29.8592 11.0206 28.708 12.3283 29.6144C12.6751 29.8547 13.2483 30.0514 13.602 30.0514C14.173 30.0514 14.0939 30.1876 12.8982 31.2643C10.9896 32.983 9.78883 35.3267 9.61991 37.6627C9.47615 39.6509 9.36115 39.7558 8.05745 39.0873H8.05745ZM63.6428 37.0832C63.4912 36.8028 63.3671 36.3695 63.3671 36.1204C63.3671 35.2669 61.671 32.5186 60.4391 31.3761L59.2074 30.2338L60.0687 29.9399C61.2416 29.5397 63.7971 27.4634 64.4979 26.3415C64.9555 25.6088 65.0455 25.1227 64.9452 23.9257L64.8196 22.4271L65.7793 22.5812C66.6368 22.7189 66.6831 22.6972 66.2139 22.3778C65.925 22.1812 65.2278 21.8719 64.6645 21.6906C63.5698 21.3382 63.45 21.1586 63.968 20.6461C65.3086 19.3195 69.4558 22.5039 70.6125 25.7479C71.1276 27.1925 71.1295 30.2024 70.6162 31.642C69.7146 34.1706 67.5443 36.3273 65.0115 37.2115C63.9997 37.5648 63.8981 37.5552 63.6428 37.0832H63.6428ZM54.5212 24.7636C54.429 24.526 54.3536 24.2202 54.3536 24.0842C54.3536 23.6703 56.3031 21.6731 56.7071 21.6731C57.2155 21.6731 57.19 22.3862 56.6745 22.5819C56.4488 22.6676 55.9096 23.2908 55.4764 23.9667C54.8836 24.8916 54.6473 25.0888 54.5212 24.7636V24.7636ZM17.9241 24.1701C17.5414 23.4379 15.6109 21.6907 14.1417 20.7467C13.4362 20.2935 12.3468 20.2612 10.2425 20.6311C9.74813 20.718 9.69887 20.586 9.72376 19.2407C9.74101 18.3088 9.96583 17.3383 10.3263 16.6396C11.2583 14.8332 13.3836 13.3721 13.3836 14.5377C13.3836 15.2578 14.1773 16.6796 15.1033 17.6183C16.2494 18.7802 18.0197 19.5109 19.6883 19.5109C20.427 19.5109 21.0313 19.5742 21.0313 19.6514C21.0313 19.7287 20.7236 20.2743 20.3475 20.8638C19.9714 21.4533 19.449 22.6046 19.1867 23.4223C18.9243 24.2399 18.6206 24.9105 18.5118 24.9126C18.403 24.9147 18.1385 24.5805 17.9241 24.1701V24.1701ZM7.3898 22.9174C6.83237 21.6373 6.8288 21.5548 7.28023 20.3852C7.67869 19.3528 7.70037 18.9569 7.42865 17.6751C7.13895 16.3084 7.16412 16.0677 7.70976 14.9866C8.43046 13.5587 10.1678 11.9174 11.7687 11.152C13.1862 10.4744 13.7779 10.4304 13.5494 11.0196C13.4582 11.2547 13.3836 11.6258 13.3836 11.8442C13.3836 12.0626 12.9226 12.4314 12.3593 12.6638C10.7025 13.3473 9.86635 14.067 9.00739 15.549C8.34784 16.6869 8.19867 17.2566 8.19658 18.646C8.19513 19.615 8.36584 20.6774 8.59282 21.1117C8.81217 21.5314 8.92374 21.942 8.84076 22.0241C8.75778 22.1062 8.52701 22.6385 8.32795 23.207L7.96601 24.2406L7.3898 22.9174ZM53.0853 21.1979C52.1547 19.5906 50.3188 17.681 48.5824 16.5142C47.7005 15.9216 46.979 15.3345 46.979 15.2094C46.979 14.9622 48.04 14.4965 49.2305 14.2212C50.2698 13.9808 49.8955 13.5651 48.6398 13.5651C48.0048 13.5651 47.2396 13.8081 46.6698 14.1907C45.8561 14.7371 45.6373 14.7757 44.9436 14.4951L44.1493 14.1739L45.3573 13.4193C46.847 12.4887 49.8109 12.1882 51.349 12.8117C52.297 13.196 52.3049 13.2131 52.3296 14.9361C52.3577 16.8962 53.0219 18.647 54.2121 19.898C54.9258 20.6482 54.9436 20.7271 54.5449 21.3774C53.9428 22.3592 53.7436 22.3347 53.0853 21.1979V21.1979ZM1.57395 21.5203C0.755457 21.0808 0 19.8592 0 18.9751C0 17.9315 0.768508 16.5779 1.60372 16.1505C3.24965 15.3083 5.09319 15.8973 5.86797 17.5129C6.38772 18.5967 6.38772 19.0738 5.86797 20.1576C5.09906 21.761 3.16525 22.3746 1.57395 21.5203V21.5203ZM2.43031 17.1552C3.23688 16.6188 3.27995 16.538 2.75932 16.538C2.42982 16.538 1.85855 16.8365 1.48982 17.2014C0.803094 17.8809 0.663146 18.5469 1.02337 19.4213C1.17683 19.7937 1.26138 19.6509 1.36479 18.8444C1.4726 18.0036 1.70237 17.6394 2.43031 17.1552ZM57.2216 20.3652C56.6207 20.0905 55.6847 19.378 55.1416 18.7819C53.0084 16.4406 53.1833 13.0798 55.5508 10.9204C57.9868 8.69847 61.0995 8.69847 63.5356 10.9204C65.9936 13.1623 66.0897 16.5154 63.7657 18.9493C62.7274 20.0368 62.4448 20.18 61.0077 20.3472C60.1271 20.4497 59.1608 20.608 58.8604 20.6991C58.5599 20.7901 57.8224 20.6399 57.2216 20.3652V20.3652ZM56.1492 16.8468C54.8331 14.3285 56.696 11.1429 59.4959 11.1241C60.6776 11.1161 60.7329 11.086 60.2421 10.7186C59.6173 10.2511 58.5174 10.2081 57.4442 10.6093C54.7981 11.5986 53.859 15.0022 55.6508 17.1093C56.4844 18.0895 56.7308 17.9597 56.1492 16.8468ZM17.6058 17.6516C15.9128 16.8906 14.4791 14.8309 14.4791 13.1597C14.4791 12.3699 15.1293 10.7781 15.7501 10.0481C17.9419 7.4706 21.8507 7.61871 23.6763 10.3485C24.3103 11.2964 24.4455 11.7906 24.4455 13.1597C24.4455 14.5288 24.3103 15.0229 23.6763 15.9708C22.3392 17.9702 19.8488 18.6597 17.6058 17.6516ZM17.0864 15.3968C16.8451 15.056 16.6612 14.2358 16.6612 13.5009C16.6612 11.7667 17.842 10.4249 19.812 9.92055L21.1679 9.57344L20.1991 9.38733C18.9582 9.14894 17.1105 9.85307 16.4251 10.8256C15.4359 12.2288 15.4961 14.3324 16.5587 15.4942C17.2024 16.198 17.6014 16.1244 17.0864 15.3968V15.3968ZM27.9876 12.9145C27.5265 9.26262 29.2159 5.997 32.3167 4.54652C34.0983 3.71311 35.4648 3.45652 36.9432 3.67775C38.5712 3.92138 38.9177 4.17303 38.5115 4.81668C38.2312 5.26071 37.9209 5.31651 36.208 5.23092C34.6051 5.15083 34.0157 5.23939 33.1105 5.69633C31.6115 6.45304 30.7704 7.262 30.0392 8.6501C29.516 9.64338 29.4475 10.1093 29.5548 11.9448C29.653 13.6223 29.5968 14.1141 29.2937 14.2292C28.3822 14.5753 28.1704 14.3621 27.9876 12.9145V12.9145ZM30.9696 13.1769C30.6647 12.3907 31.1425 10.0327 31.8226 8.96657C32.9351 7.22279 35.04 5.99756 36.9232 5.99756C37.7106 5.99756 37.7111 5.99878 37.5308 7.34391C37.3785 8.47975 37.4651 8.92244 38.0846 10.1752C38.7566 11.5344 39.6708 12.5385 40.5058 12.8344C41.394 13.1491 40.3245 13.2369 38.556 12.9944C36.7256 12.7434 34.0944 12.9309 31.7544 13.479C31.3425 13.5755 31.0858 13.4767 30.9696 13.1769V13.1769ZM41.5846 13.3788C41.8475 13.3108 42.2777 13.3108 42.5406 13.3788C42.8035 13.4467 42.5884 13.5024 42.0626 13.5024C41.5368 13.5024 41.3217 13.4467 41.5846 13.3788ZM40.6663 11.2715C39.7084 10.65 38.7775 9.00197 38.791 7.95153C38.8034 6.98873 39.8705 5.18261 40.7494 4.6369C42.1133 3.79 44.5001 3.9962 45.6197 5.05767C47.6579 6.98985 47.2323 10.2904 44.7834 11.5434C43.615 12.1413 41.8247 12.0231 40.6663 11.2715ZM40.7632 6.32393C40.9307 6.12427 41.5067 5.71987 42.0431 5.42526L43.0186 4.88961L41.9261 5.02961C40.057 5.26912 39.0341 7.20917 39.9458 8.78557C40.2575 9.32447 40.2947 9.25876 40.373 8.03143C40.4202 7.29197 40.5958 6.52359 40.7632 6.32393ZM6.69178 8.64755C5.60763 8.03922 5.4013 6.92142 6.2353 6.17458C7.26854 5.24932 9.01841 5.87442 9.00924 7.1655C9.00398 7.90609 8.76231 8.26645 8.00712 8.65978C7.29743 9.02941 7.37358 9.03012 6.69178 8.64755V8.64755ZM24.1333 6.54037C22.7684 5.99534 22.2282 3.94324 23.1022 2.62336C23.7485 1.64728 25.1614 1.26629 26.1875 1.79137C27.1807 2.29953 27.8597 3.20371 27.8597 4.01797C27.8597 5.98094 25.9572 7.2687 24.1333 6.54037V6.54037ZM24.6285 2.92756L25.2649 2.4121L24.5821 2.6136C23.7154 2.86935 23.5497 3.033 23.4817 3.70028C23.3627 4.86791 23.5484 5.30924 23.7687 4.38246C23.8915 3.86577 24.2784 3.21107 24.6285 2.92756ZM49.4162 4.12648C48.3984 3.11933 48.3672 2.00953 49.3249 0.88321C50.8075 -0.860173 53.5342 0.145035 53.5342 2.43494C53.5342 4.71459 51.0442 5.7374 49.4162 4.12648ZM50.4466 1.2888C51.2169 0.526496 50.7594 0.302776 49.9367 1.0395C49.6089 1.33303 49.4513 1.82078 49.4782 2.4584C49.5111 3.2411 49.5408 3.28957 49.6308 2.7077C49.6923 2.31043 50.0594 1.67192 50.4466 1.2888V1.2888Z" fill="#DBF1F3"/>
</g>
<defs>
<clipPath id="clip0">
<rect width="71" height="53" fill="white"/>
</clipPath>
</defs>
</svg>
